<svg fill="currentColor" width="2rem" viewBox="-6 -6 72.00 72.00">
  <path d="M44.217,20.613c-0.197,0.253-0.492,0.386-0.79,0.386c-0.214,0-0.431-0.068-0.613-0.211 c-0.436-0.339-0.514-0.967-0.175-1.403c1.094-1.407,4.695-5.689,8.737-10.407C45.93,3.441,38.361,0,30,0 C22.316,0,15.301,2.907,9.988,7.674c3.667,4.035,6.818,7.574,7.686,8.719c0.334,0.44,0.247,1.067-0.192,1.401 c-0.181,0.137-0.394,0.203-0.604,0.203c-0.303,0-0.602-0.137-0.798-0.396c-0.818-1.079-3.915-4.554-7.537-8.539 C3.263,14.473,0,21.861,0,30c0,15.869,12.388,28.892,28,29.926V38.914c0-1.854-0.511-3.719-1.476-5.394 c-0.258-0.447-0.551-0.948-0.863-1.477c-0.192-0.324-0.392-0.661-0.602-1.012c-0.031-0.052-0.06-0.101-0.092-0.153 c-0.26-0.433-0.533-0.884-0.819-1.352c-0.072-0.118-0.117-0.245-0.136-0.374c-0.058-0.385,0.113-0.786,0.467-1.002 c0.473-0.288,1.087-0.14,1.375,0.33c0.25,0.408,0.489,0.802,0.719,1.185c0.078,0.13,0.148,0.248,0.224,0.375 c0.128,0.215,0.26,0.433,0.381,0.638c0.019,0.032,0.041,0.068,0.06,0.1c0.938,0.148,1.853,0.195,2.762,0.197V27 c0-0.553,0.447-1,1-1s1,0.447,1,1v3.863c0.989-0.113,1.973-0.285,2.955-0.563c0.458-0.713,0.976-1.506,1.543-2.356 c0.038-0.057,0.076-0.114,0.114-0.172c0.498-0.745,1.028-1.527,1.594-2.342c0.315-0.453,0.938-0.567,1.392-0.251 c0.454,0.314,0.566,0.938,0.251,1.392c-0.009,0.013-0.018,0.026-0.027,0.039c0,0,0,0.001,0,0.001 c-0.556,0.801-1.111,1.619-1.662,2.446c-0.026,0.039-0.052,0.078-0.078,0.116c-0.553,0.832-1.102,1.673-1.642,2.518l-0.198,0.312 l-0.002,0c-0.29,0.457-0.554,0.875-0.782,1.242C34.504,34.779,34,36.485,34,38.178v21.548C48.657,57.763,60,45.185,60,30 c0-7.457-2.741-14.281-7.26-19.535C48.773,15.096,45.262,19.27,44.217,20.613z M28,25c-0.552,0-1-0.448-1-1c0-0.552,0.448-1,1-1 c0.552,0,1,0.448,1,1C29,24.552,28.552,25,28,25z M28,22c-0.552,0-1-0.448-1-1c0-0.552,0.448-1,1-1s1,0.448,1,1 C29,21.552,28.552,22,28,22z M28,19c-0.552,0-1-0.448-1-1c0-0.552,0.448-1,1-1s1,0.448,1,1C29,18.552,28.552,19,28,19z M31,24 c-0.552,0-1-0.448-1-1c0-0.552,0.448-1,1-1c0.552,0,1,0.448,1,1C32,23.552,31.552,24,31,24z M31,21c-0.552,0-1-0.448-1-1 c0-0.552,0.448-1,1-1s1,0.448,1,1C32,20.552,31.552,21,31,21z M31,18c-0.552,0-1-0.448-1-1c0-0.552,0.448-1,1-1s1,0.448,1,1 C32,17.552,31.552,18,31,18z M34,25c-0.552,0-1-0.448-1-1c0-0.552,0.448-1,1-1c0.552,0,1,0.448,1,1C35,24.552,34.552,25,34,25z M34,22c-0.552,0-1-0.448-1-1c0-0.552,0.448-1,1-1s1,0.448,1,1C35,21.552,34.552,22,34,22z M34,19c-0.552,0-1-0.448-1-1 c0-0.552,0.448-1,1-1s1,0.448,1,1C35,18.552,34.552,19,34,19z" />
</svg>